<mxfile host="Electron" agent="Mozilla/5.0 (Windows NT 10.0; Win64; x64) AppleWebKit/537.36 (KHTML, like Gecko) draw.io/25.0.2 Chrome/128.0.6613.186 Electron/32.2.5 Safari/537.36" version="25.0.2">
  <diagram name="Page-1" id="SAJuzJpUicz_NdNRBmkV">
    <mxGraphModel dx="630" dy="866" grid="1" gridSize="10" guides="1" tooltips="1" connect="1" arrows="1" fold="1" page="1" pageScale="1" pageWidth="850" pageHeight="1100" math="0" shadow="0">
      <root>
        <mxCell id="0" />
        <mxCell id="1" parent="0" />
        <mxCell id="aoKa_XFCQUV2A6NjJ6iD-30" value="true" style="text;strokeColor=none;align=center;fillColor=none;html=1;verticalAlign=middle;whiteSpace=wrap;rounded=0;fontColor=#ffffff;" parent="1" vertex="1">
          <mxGeometry x="1040" y="330" width="100" height="30" as="geometry" />
        </mxCell>
        <mxCell id="aoKa_XFCQUV2A6NjJ6iD-33" value="false" style="text;strokeColor=none;align=center;fillColor=none;html=1;verticalAlign=middle;whiteSpace=wrap;rounded=0;fontColor=#FFFFFF;" parent="1" vertex="1">
          <mxGeometry x="915" y="402.5" width="100" height="30" as="geometry" />
        </mxCell>
        <mxCell id="SYZfZ82PZNANb1fpEGAY-15" value="" style="edgeStyle=orthogonalEdgeStyle;rounded=0;orthogonalLoop=1;jettySize=auto;html=1;" edge="1" parent="1" source="SYZfZ82PZNANb1fpEGAY-1" target="SYZfZ82PZNANb1fpEGAY-2">
          <mxGeometry relative="1" as="geometry" />
        </mxCell>
        <mxCell id="SYZfZ82PZNANb1fpEGAY-1" value="&lt;span style=&quot;color: rgb(255, 255, 255);&quot;&gt;Start&lt;/span&gt;" style="strokeWidth=2;html=1;shape=mxgraph.flowchart.start_1;whiteSpace=wrap;" vertex="1" parent="1">
          <mxGeometry x="950" y="20" width="100" height="60" as="geometry" />
        </mxCell>
        <mxCell id="SYZfZ82PZNANb1fpEGAY-14" value="" style="edgeStyle=orthogonalEdgeStyle;rounded=0;orthogonalLoop=1;jettySize=auto;html=1;" edge="1" parent="1" source="SYZfZ82PZNANb1fpEGAY-2" target="SYZfZ82PZNANb1fpEGAY-3">
          <mxGeometry relative="1" as="geometry" />
        </mxCell>
        <mxCell id="SYZfZ82PZNANb1fpEGAY-2" value="&lt;span style=&quot;color: rgb(255, 255, 255);&quot;&gt;Nhập a, b, c&lt;/span&gt;" style="shape=parallelogram;html=1;strokeWidth=2;perimeter=parallelogramPerimeter;whiteSpace=wrap;rounded=1;arcSize=12;size=0.23;" vertex="1" parent="1">
          <mxGeometry x="915" y="120" width="170" height="50" as="geometry" />
        </mxCell>
        <mxCell id="SYZfZ82PZNANb1fpEGAY-16" value="" style="edgeStyle=orthogonalEdgeStyle;rounded=0;orthogonalLoop=1;jettySize=auto;html=1;" edge="1" parent="1" source="SYZfZ82PZNANb1fpEGAY-3" target="SYZfZ82PZNANb1fpEGAY-4">
          <mxGeometry relative="1" as="geometry" />
        </mxCell>
        <mxCell id="SYZfZ82PZNANb1fpEGAY-3" value="&lt;span style=&quot;color: rgb(255, 255, 255);&quot;&gt;delta= b*b -4*a*c&lt;/span&gt;" style="rounded=1;whiteSpace=wrap;html=1;absoluteArcSize=1;arcSize=14;strokeWidth=2;" vertex="1" parent="1">
          <mxGeometry x="915" y="220" width="170" height="60" as="geometry" />
        </mxCell>
        <mxCell id="SYZfZ82PZNANb1fpEGAY-10" value="" style="edgeStyle=orthogonalEdgeStyle;rounded=0;orthogonalLoop=1;jettySize=auto;html=1;" edge="1" parent="1" source="SYZfZ82PZNANb1fpEGAY-4" target="SYZfZ82PZNANb1fpEGAY-6">
          <mxGeometry relative="1" as="geometry" />
        </mxCell>
        <mxCell id="SYZfZ82PZNANb1fpEGAY-17" value="" style="edgeStyle=orthogonalEdgeStyle;rounded=0;orthogonalLoop=1;jettySize=auto;html=1;" edge="1" parent="1" source="SYZfZ82PZNANb1fpEGAY-4" target="SYZfZ82PZNANb1fpEGAY-5">
          <mxGeometry relative="1" as="geometry" />
        </mxCell>
        <mxCell id="SYZfZ82PZNANb1fpEGAY-4" value="&lt;span style=&quot;color: rgb(255, 255, 255);&quot;&gt;delta&amp;lt;0&lt;/span&gt;" style="strokeWidth=2;html=1;shape=mxgraph.flowchart.decision;whiteSpace=wrap;" vertex="1" parent="1">
          <mxGeometry x="920" y="320" width="160" height="80" as="geometry" />
        </mxCell>
        <mxCell id="SYZfZ82PZNANb1fpEGAY-11" value="" style="edgeStyle=orthogonalEdgeStyle;rounded=0;orthogonalLoop=1;jettySize=auto;html=1;" edge="1" parent="1" source="SYZfZ82PZNANb1fpEGAY-5" target="SYZfZ82PZNANb1fpEGAY-7">
          <mxGeometry relative="1" as="geometry" />
        </mxCell>
        <mxCell id="SYZfZ82PZNANb1fpEGAY-12" style="edgeStyle=orthogonalEdgeStyle;rounded=0;orthogonalLoop=1;jettySize=auto;html=1;entryX=0;entryY=0.5;entryDx=0;entryDy=0;" edge="1" parent="1" source="SYZfZ82PZNANb1fpEGAY-5" target="SYZfZ82PZNANb1fpEGAY-8">
          <mxGeometry relative="1" as="geometry">
            <mxPoint x="1050" y="680" as="targetPoint" />
            <Array as="points">
              <mxPoint x="1000" y="590" />
            </Array>
          </mxGeometry>
        </mxCell>
        <mxCell id="SYZfZ82PZNANb1fpEGAY-5" value="&lt;span style=&quot;color: rgb(255, 255, 255);&quot;&gt;delta=0&lt;/span&gt;" style="strokeWidth=2;html=1;shape=mxgraph.flowchart.decision;whiteSpace=wrap;" vertex="1" parent="1">
          <mxGeometry x="920" y="440" width="160" height="80" as="geometry" />
        </mxCell>
        <mxCell id="SYZfZ82PZNANb1fpEGAY-18" style="edgeStyle=orthogonalEdgeStyle;rounded=0;orthogonalLoop=1;jettySize=auto;html=1;" edge="1" parent="1" source="SYZfZ82PZNANb1fpEGAY-6">
          <mxGeometry relative="1" as="geometry">
            <mxPoint x="1540" y="440" as="targetPoint" />
          </mxGeometry>
        </mxCell>
        <mxCell id="SYZfZ82PZNANb1fpEGAY-6" value="&lt;span style=&quot;color: rgb(255, 255, 255);&quot;&gt;Phương trình vô nghiệm&lt;/span&gt;" style="rounded=1;whiteSpace=wrap;html=1;absoluteArcSize=1;arcSize=14;strokeWidth=2;" vertex="1" parent="1">
          <mxGeometry x="1120" y="330" width="170" height="60" as="geometry" />
        </mxCell>
        <mxCell id="SYZfZ82PZNANb1fpEGAY-19" value="" style="edgeStyle=orthogonalEdgeStyle;rounded=0;orthogonalLoop=1;jettySize=auto;html=1;" edge="1" parent="1" source="SYZfZ82PZNANb1fpEGAY-7" target="SYZfZ82PZNANb1fpEGAY-9">
          <mxGeometry relative="1" as="geometry" />
        </mxCell>
        <mxCell id="SYZfZ82PZNANb1fpEGAY-7" value="&lt;span style=&quot;color: rgb(255, 255, 255);&quot;&gt;Phương trình có nghiệm kép. x1=x2=(-b)/2a&lt;/span&gt;" style="rounded=1;whiteSpace=wrap;html=1;absoluteArcSize=1;arcSize=14;strokeWidth=2;" vertex="1" parent="1">
          <mxGeometry x="1120" y="450" width="270" height="60" as="geometry" />
        </mxCell>
        <mxCell id="SYZfZ82PZNANb1fpEGAY-20" style="edgeStyle=orthogonalEdgeStyle;rounded=0;orthogonalLoop=1;jettySize=auto;html=1;" edge="1" parent="1" source="SYZfZ82PZNANb1fpEGAY-8">
          <mxGeometry relative="1" as="geometry">
            <mxPoint x="1540" y="520" as="targetPoint" />
          </mxGeometry>
        </mxCell>
        <mxCell id="SYZfZ82PZNANb1fpEGAY-8" value="&lt;span style=&quot;color: rgb(255, 255, 255);&quot;&gt;Phương trình có 2 nghiệm phân biệt&lt;/span&gt;&lt;br style=&quot;color: rgb(255, 255, 255);&quot;&gt;&lt;div style=&quot;color: rgb(255, 255, 255);&quot;&gt;&amp;nbsp;x1 = (-b + sqrt(delta) / 2a)&lt;/div&gt;&lt;div style=&quot;color: rgb(255, 255, 255);&quot;&gt;&amp;nbsp;x2 = (-b - sqrt(delta) / 2a)&lt;/div&gt;" style="rounded=1;whiteSpace=wrap;html=1;absoluteArcSize=1;arcSize=14;strokeWidth=2;" vertex="1" parent="1">
          <mxGeometry x="1120" y="560" width="230" height="60" as="geometry" />
        </mxCell>
        <mxCell id="SYZfZ82PZNANb1fpEGAY-9" value="&lt;span style=&quot;color: rgb(255, 255, 255);&quot;&gt;End&lt;/span&gt;" style="strokeWidth=2;html=1;shape=mxgraph.flowchart.start_1;whiteSpace=wrap;" vertex="1" parent="1">
          <mxGeometry x="1480" y="445" width="120" height="70" as="geometry" />
        </mxCell>
        <mxCell id="SYZfZ82PZNANb1fpEGAY-23" value="true" style="text;strokeColor=none;align=center;fillColor=none;html=1;verticalAlign=middle;whiteSpace=wrap;rounded=0;fontColor=#ffffff;" vertex="1" parent="1">
          <mxGeometry x="1040" y="450" width="100" height="30" as="geometry" />
        </mxCell>
        <mxCell id="SYZfZ82PZNANb1fpEGAY-24" value="false" style="text;strokeColor=none;align=center;fillColor=none;html=1;verticalAlign=middle;whiteSpace=wrap;rounded=0;fontColor=#FFFFFF;" vertex="1" parent="1">
          <mxGeometry x="980" y="550" width="100" height="30" as="geometry" />
        </mxCell>
      </root>
    </mxGraphModel>
  </diagram>
</mxfile>
